<svg id="Group_40" data-name="Group 40" xmlns="http://www.w3.org/2000/svg" xmlns:xlink="http://www.w3.org/1999/xlink" width="681.306" height="396.309" viewBox="0 0 681.306 396.309">
  <defs>
    <clipPath id="clip-path">
      <rect id="Rectangle_32" data-name="Rectangle 32" width="681.306" height="396.309" fill="none"/>
    </clipPath>
    <clipPath id="clip-path-3">
      <rect id="Rectangle_10" data-name="Rectangle 10" width="217.288" height="217.288" fill="none"/>
    </clipPath>
    <clipPath id="clip-path-4">
      <path id="Path_38" data-name="Path 38" d="M189.345,240.809H27.942A27.942,27.942,0,0,1,0,212.867V51.461A27.942,27.942,0,0,1,27.942,23.519h161.4a27.942,27.942,0,0,1,27.942,27.942V212.867a27.942,27.942,0,0,1-27.942,27.942" transform="translate(0 -23.519)" fill="none"/>
    </clipPath>
    <linearGradient id="linear-gradient" x1="0.025" y1="1.405" x2="0.04" y2="1.405" gradientUnits="objectBoundingBox">
      <stop offset="0" stop-color="#c6ced9"/>
      <stop offset="1" stop-color="#e4e4f2"/>
    </linearGradient>
    <clipPath id="clip-path-6">
      <rect id="Rectangle_15" data-name="Rectangle 15" width="159.642" height="143.779" fill="none"/>
    </clipPath>
    <clipPath id="clip-path-7">
      <path id="Path_39" data-name="Path 39" d="M204.438,143.78H94.7a24.949,24.949,0,0,1-24.948-24.948V24.951A24.95,24.95,0,0,1,94.7,0H204.438A24.951,24.951,0,0,1,229.39,24.951v93.877a24.951,24.951,0,0,1-24.952,24.952" transform="translate(-69.749)" fill="none"/>
    </clipPath>
    <linearGradient id="linear-gradient-2" x1="-1.495" y1="2.756" x2="-1.473" y2="2.756" xlink:href="#linear-gradient"/>
    <clipPath id="clip-path-9">
      <rect id="Rectangle_20" data-name="Rectangle 20" width="261.784" height="307.276" fill="none"/>
    </clipPath>
    <clipPath id="clip-path-10">
      <path id="Path_71" data-name="Path 71" d="M349.614,333.3h-192.2a34.792,34.792,0,0,1-34.791-34.791V60.814a34.792,34.792,0,0,1,34.791-34.791h192.2A34.79,34.79,0,0,1,384.4,60.814V298.508A34.79,34.79,0,0,1,349.614,333.3" transform="translate(-122.621 -26.023)" fill="none"/>
    </clipPath>
    <linearGradient id="linear-gradient-3" x1="-1.603" y1="1" x2="-1.589" y2="1" xlink:href="#linear-gradient"/>
    <clipPath id="clip-path-11">
      <rect id="Rectangle_28" data-name="Rectangle 28" width="114.706" height="24.348" fill="none"/>
    </clipPath>
    <clipPath id="clip-path-12">
      <path id="Path_92" data-name="Path 92" d="M115.55,69.894h22.68l-6.943-14.4h-22.68Z" transform="translate(-108.607 -55.495)" fill="none"/>
    </clipPath>
    <linearGradient id="linear-gradient-4" x1="-22.913" y1="26.19" x2="-22.702" y2="26.19" xlink:href="#linear-gradient"/>
    <clipPath id="clip-path-13">
      <path id="Path_93" data-name="Path 93" d="M113.852,69.894h5.4l-6.937-14.4h-5.406Z" transform="translate(-106.909 -55.495)" fill="none"/>
    </clipPath>
    <linearGradient id="linear-gradient-5" x1="-54.131" y1="26.19" x2="-53.625" y2="26.19" xlink:href="#linear-gradient"/>
    <clipPath id="clip-path-14">
      <path id="Path_94" data-name="Path 94" d="M98.037,61.1h91.85l-3.05-7.2H94.993Z" transform="translate(-94.993 -53.903)" fill="none"/>
    </clipPath>
    <linearGradient id="linear-gradient-6" x1="-6.256" y1="53.761" x2="-6.19" y2="53.761" xlink:href="#linear-gradient"/>
    <clipPath id="clip-path-15">
      <path id="Path_95" data-name="Path 95" d="M40.757,92.415l6.819,14.154h22.29L63.043,92.415Z" transform="translate(-40.757 -92.415)" fill="none"/>
    </clipPath>
    <linearGradient id="linear-gradient-7" x1="-4.79" y1="5.661" x2="-4.673" y2="5.661" xlink:href="#linear-gradient"/>
    <clipPath id="clip-path-16">
      <path id="Path_96" data-name="Path 96" d="M37.708,92.415l6.822,14.154h5.31L43.018,92.415Z" transform="translate(-37.708 -92.415)" fill="none"/>
    </clipPath>
    <linearGradient id="linear-gradient-8" x1="-10.634" y1="5.661" x2="-10.352" y2="5.661" xlink:href="#linear-gradient"/>
  </defs>
  <g id="Group_39" data-name="Group 39" clip-path="url(#clip-path)">
    <g id="Group_11" data-name="Group 11">
      <g id="Group_10" data-name="Group 10" clip-path="url(#clip-path)">
        <g id="Group_9" data-name="Group 9" transform="translate(0 80.466)" opacity="0.95">
          <g id="Group_8" data-name="Group 8">
            <g id="Group_7" data-name="Group 7" clip-path="url(#clip-path-3)">
              <g id="Group_6" data-name="Group 6" transform="translate(0 -0.001)">
                <g id="Group_5" data-name="Group 5" clip-path="url(#clip-path-4)">
                  <rect id="Rectangle_9" data-name="Rectangle 9" width="228.926" height="228.93" transform="translate(-11.952 0.659) rotate(-3.158)" fill="url(#linear-gradient)"/>
                </g>
              </g>
            </g>
          </g>
        </g>
      </g>
    </g>
    <rect id="Rectangle_12" data-name="Rectangle 12" width="100.6" height="4.971" transform="translate(58.343 248.283)" fill="#58b68d"/>
    <rect id="Rectangle_13" data-name="Rectangle 13" width="72.104" height="4.971" transform="translate(72.593 263.943)" fill="#58b68d"/>
    <g id="Group_18" data-name="Group 18">
      <g id="Group_17" data-name="Group 17" clip-path="url(#clip-path)">
        <g id="Group_16" data-name="Group 16" transform="translate(238.631)" opacity="0.95">
          <g id="Group_15" data-name="Group 15">
            <g id="Group_14" data-name="Group 14" clip-path="url(#clip-path-6)">
              <g id="Group_13" data-name="Group 13" transform="translate(0.001)">
                <g id="Group_12" data-name="Group 12" clip-path="url(#clip-path-7)">
                  <rect id="Rectangle_14" data-name="Rectangle 14" width="159.641" height="143.78" transform="translate(0 0)" fill="url(#linear-gradient-2)"/>
                </g>
              </g>
            </g>
          </g>
        </g>
      </g>
    </g>
    <rect id="Rectangle_17" data-name="Rectangle 17" width="12.662" height="2.347" transform="translate(311.516 116.584)" fill="#58b68d"/>
    <g id="Group_34" data-name="Group 34">
      <g id="Group_33" data-name="Group 33" clip-path="url(#clip-path)">
        <path id="Path_40" data-name="Path 40" d="M109.982,9.463s7.534,4.14,5.142,14.311-3.3,11.513-1.358,15.618,3.651,21.335,1.577,24.486S92.259,48.51,89.926,33.693s2.922-21.1,4.783-23.453,8.628-4.55,15.273-.777" transform="translate(216.314 17.986)" fill="#153126"/>
        <path id="Path_41" data-name="Path 41" d="M114.853,66.7h-8.064c-.39-3.979-.753-6.747-.677-7.157.12-.674-8.026-22.037-8.786-23.8s-3.75-6.5-4.14-10.962,5.423-6.264,5.423-6.264c7.855,1.406,10.514,12.269,10.514,12.269s3.3,22.03,4.964,28.226a39.249,39.249,0,0,1,.766,7.691" transform="translate(225.583 44.818)" fill="#eb9672"/>
        <path id="Path_42" data-name="Path 42" d="M110.7,37.454,98.689,42.517S87.648,15.123,96.9,18.182c9.224,3.048,13.374,8.782,13.795,19.272" transform="translate(225.681 43.446)" fill="#315e49"/>
        <path id="Path_43" data-name="Path 43" d="M121.973,51.464c-.352,2.72-1.786,12.354-1.464,14.954.051.431.229,1.416.5,2.758H92.047c.773-2.747,1.471-5.18,1.9-6.6,1.41-4.667.062-5.912-.65-9.645-.277-1.461-1.249-4.236-2.309-7.369-.356-1.047-.722-2.138-1.071-3.233A66.517,66.517,0,0,1,87.681,32C85.933,20.857,94.5,19.787,94.5,19.787c3.182-.585,8.745-2.3,8.745-2.3l8.711,1.81A9.52,9.52,0,0,1,114,20.5l0,.007a15.784,15.784,0,0,1,1.96,1.717,52.678,52.678,0,0,1,4.738,6.849c.578.941,1.16,1.909,1.707,2.864,1.772,3.062,3.031,5.536,2.99,8.324-.034,2.744-3.076,8.485-3.425,11.2" transform="translate(211.733 42.334)" fill="#315e49"/>
        <path id="Path_44" data-name="Path 44" d="M104.149,19.246s5.457,9.326,3.428,10.024S94.849,27.611,90.672,18.8c0,0,7.021-3.189,13.476.448" transform="translate(219.543 42.385)" fill="#eb9672"/>
        <path id="Path_45" data-name="Path 45" d="M102.068,31.971s-4.848,2.053-9.237-4.7c0,0,1.18-7.671-1.314-12.1s10.9,5.317,10.9,5.317-.219.913-.441,2.265c-.116.691-.233,1.5-.325,2.347-.075.712-.133,1.457-.157,2.2a12.077,12.077,0,0,0,.575,4.677" transform="translate(220.84 33.92)" fill="#eb9672"/>
        <path id="Path_46" data-name="Path 46" d="M97.394,22.313c-1,5.132-8.16,11.564-8.16,11.564-.352-1.05-.718-2.138-1.067-3.233a46.8,46.8,0,0,0,9.227-8.331" transform="translate(213.478 54.026)" fill="#272f51"/>
        <path id="Path_47" data-name="Path 47" d="M99.263,35.369c-.455,1.871-2.542,20.819-2.316,21.465.133.369,1.146,4.752,2.159,9.624H89.759c-.958-3.141-1.526-5.744-1.389-7.222.6-6.391-1.57-26.765-1.57-26.765s-1.936-12.323,8.29-13.863c0,0,6.039.794,6.4,5.255S99.718,33.5,99.263,35.369" transform="translate(209.813 45.055)" fill="#eb9672"/>
        <path id="Path_48" data-name="Path 48" d="M86.806,39,99.5,41.959s10.065-19.546,1-23.114C90.938,15.081,84.513,28.332,86.806,39" transform="translate(209.054 44.046)" fill="#315e49"/>
        <path id="Path_49" data-name="Path 49" d="M105.848,8.7s11.03,4.047,4.037,23.083-21.26-3.25-19.1-14.948S105.848,8.7,105.848,8.7" transform="translate(219.274 19.835)" fill="#eb9773"/>
        <path id="Path_50" data-name="Path 50" d="M111.864,21.39A25.279,25.279,0,0,1,96.7,26.83s-2.183,5.32-2.535,6.955c0,0-9.231-15.847,1.379-23.853s20.237,8.139,16.32,11.458" transform="translate(218.989 18.715)" fill="#153126"/>
        <path id="Path_51" data-name="Path 51" d="M95.334,16.46c-.007-1.41-.722-4.65-2.853-3.852s-.222,7.417,1.184,7.082c0,0,1.683.106,1.67-3.23" transform="translate(221.614 30.227)" fill="#eb9773"/>
        <path id="Path_52" data-name="Path 52" d="M99.349,22.424a11.736,11.736,0,0,1-7.25-6.538c4.215,5.447,7.4,4.663,7.4,4.663-.075.712-.082,1.153-.147,1.875" transform="translate(222.999 38.465)" fill="#97644e"/>
        <path id="Path_53" data-name="Path 53" d="M169.057,7.606V9.9h13.5V22.571h2.292V7.606ZM77.373,22.571h2.292V9.9h13.5V7.606H77.373ZM182.557,87.952v12.676h-13.5v2.292H184.85V87.952Zm-102.892,0H77.373V102.92H93.166v-2.292h-13.5Z" transform="translate(187.343 18.416)" fill="#58b68d"/>
        <rect id="Rectangle_18" data-name="Rectangle 18" width="16.911" height="3.134" transform="translate(100.189 224.006)" fill="#58b68d"/>
        <path id="Path_54" data-name="Path 54" d="M133.237,30.117v3.062H151.27V50.1h3.062V30.117ZM10.775,50.1h3.062V33.179H31.871V30.117h-21.1Zm140.5,87.332v16.932H133.237v3.062h21.1V137.436Zm-137.433,0H10.775V157.43h21.1v-3.062H13.837Z" transform="translate(26.089 72.922)" fill="#58b68d"/>
        <path id="Path_55" data-name="Path 55" d="M41.676,15.7s10.65-6.836,20.257,5.313,6.151,23.829,4.143,34.74C64.088,66.563,54.4,91.316,58.515,102.22s-1.143,16.58-1.143,16.58S24.34,127.26,28.189,77.573,41.676,15.7,41.676,15.7" transform="translate(67.498 33.363)" fill="#153126"/>
        <path id="Path_56" data-name="Path 56" d="M56.886,58.364S47.214,84,38.075,107.884H13.288c3.787-11.694,7.629-24.161,8.054-26.45.807-4.451,1.177-17.637,6.251-26.885S44.778,41.641,44.778,41.641c19.97.9,12.108,16.723,12.108,16.723" transform="translate(32.174 100.825)" fill="#315e49"/>
        <path id="Path_57" data-name="Path 57" d="M112.692,88.656s-3.863,12.57-7.6,24.493H24.218q-.508-1.57-1.269-3.319c-5.919-13.709-8.8-25.386-5.919-33.173S36.319,47.549,40.558,46.7s16.409-6.6,16.409-6.6c7.965-1.187,19.282-.6,23.179.76s25.567,3.551,33.522,9.73c9.159,7.116-.975,38.062-.975,38.062" transform="translate(38.508 95.556)" fill="#e9d1c8"/>
        <path id="Path_58" data-name="Path 58" d="M32.009,69.885l-7.4-8.67,6.429-22.83s2.159,12.714.975,31.5" transform="translate(59.576 92.941)" fill="#cdb8b0"/>
        <path id="Path_59" data-name="Path 59" d="M26.207,47.347S28.64,69.7,28.13,76.979c0,0,12.662,12.69,27.066-14.811,0,0-6.063-11.335-1.5-26.782s-27.49,11.961-27.49,11.961" transform="translate(63.455 74.253)" fill="#eb9672"/>
        <path id="Path_60" data-name="Path 60" d="M26.769,44.2V55.8l14.571-10.89Z" transform="translate(64.817 107.028)" fill="#eb9672"/>
        <path id="Path_61" data-name="Path 61" d="M26.769,67.267l6.052-7.489L53.2,39.466l6.593,6.35Z" transform="translate(64.817 95.558)" fill="#cdb8b0"/>
        <path id="Path_62" data-name="Path 62" d="M86.9,66.77s-3.493,12.953-12.946,45H31.867c-1.307-16.86-2.032-30.292-1.738-34.357.818-11.427,17.928-37.384,17.928-37.384s10.657,1.29,22.1,3.77C83.214,46.636,86.9,66.77,86.9,66.77" transform="translate(72.794 96.932)" fill="#315e49"/>
        <path id="Path_63" data-name="Path 63" d="M48.185,40.824C37.761,53.3,34.055,80.716,33.467,109.862H24.106c-10.859-22.717-7.955-33.026-7.955-33.026C21.828,57.421,38.7,43.619,38.7,43.619Z" transform="translate(38.254 98.847)" fill="#315e49"/>
        <path id="Path_64" data-name="Path 64" d="M31.208,61.212l-9.33,2.58L37.637,38.385Z" transform="translate(52.973 92.942)" fill="#f9dfd5"/>
        <path id="Path_65" data-name="Path 65" d="M28.538,59.778l8.522,11.171,17.411-29.18-5.553-2.3Z" transform="translate(69.099 95.558)" fill="#f9dfd5"/>
        <path id="Path_66" data-name="Path 66" d="M26.354,43.842l.448,4.4s10.035,1.964,23.2-14.1c0,0-9.333,11.386-23.651,9.7" transform="translate(63.811 82.677)" fill="#97644e"/>
        <path id="Path_67" data-name="Path 67" d="M42.779,92.356c-3.965-.147-15.033-1.44-20.494-26.936-6.668-31.151,8.071-47.306,20.692-50.3S67.238,16.513,73.7,32.795c0,0,4.721,12.693-2.942,35.3S47.025,92.513,42.779,92.356" transform="translate(49.938 34.489)" fill="#eb9773"/>
        <path id="Path_68" data-name="Path 68" d="M54.186,36.536s-16.949,1.054-32.7,24.722c0,0-7.373-28.479,11.9-41.476s32.776-1.82,37.477,3.846c0,0,6.747,1.55,6.959,14.345S86.633,70.085,67.751,79.24c0,0,1.8-14.605.137-17.948s-7.434-1.085-13.7-24.756" transform="translate(48.659 33.276)" fill="#153126"/>
        <path id="Path_69" data-name="Path 69" d="M34.878,27.494c.855-2.21,3.185-3.1,4.465-.729S39.1,38.349,35.679,39.359s-2.532-7.373-.8-11.865" transform="translate(80.741 61.398)" fill="#eb9773"/>
        <path id="Path_70" data-name="Path 70" d="M90.015,110.974H62.46c-2.894-7.1-5.59-13.388-7.39-17.91C49.1,78.051,25.352,49.815,40.485,40.4c0,0,19.833-1.211,29.772,10.353S79.662,76.063,82.19,82.03c1.875,4.424,5.536,19.659,7.825,28.944" transform="translate(86.011 97.732)" fill="#315e49"/>
        <g id="Group_23" data-name="Group 23" transform="translate(419.522 89.033)" opacity="0.95">
          <g id="Group_22" data-name="Group 22">
            <g id="Group_21" data-name="Group 21" clip-path="url(#clip-path-9)">
              <g id="Group_20" data-name="Group 20" transform="translate(0 -0.001)">
                <g id="Group_19" data-name="Group 19" clip-path="url(#clip-path-10)">
                  <rect id="Rectangle_19" data-name="Rectangle 19" width="261.784" height="307.277" transform="translate(0 0)" fill="url(#linear-gradient-3)"/>
                </g>
              </g>
            </g>
          </g>
        </g>
        <rect id="Rectangle_21" data-name="Rectangle 21" width="20.764" height="3.846" transform="translate(538.217 270.306)" fill="#58b68d"/>
        <rect id="Rectangle_22" data-name="Rectangle 22" width="120.816" height="7.445" transform="translate(459.394 305.542)" fill="#58b68d"/>
        <rect id="Rectangle_23" data-name="Rectangle 23" width="97.698" height="7.445" transform="translate(459.391 341.288)" fill="#58b68d"/>
        <rect id="Rectangle_24" data-name="Rectangle 24" width="57.276" height="7.445" transform="translate(459.391 323.415)" fill="#58b68d"/>
        <path id="Path_72" data-name="Path 72" d="M285.227,34.98v3.76h22.139V59.518h3.76V34.98ZM134.882,59.518h3.76V38.74h22.139V34.98h-25.9ZM307.367,166.734v20.784H285.227v3.763h25.9V166.734Zm-168.724,0h-3.76v24.548h25.9v-3.763H138.642Z" transform="translate(326.589 84.697)" fill="#58b68d"/>
        <path id="Path_73" data-name="Path 73" d="M198.641,133.431a22.143,22.143,0,1,1,22.143-22.143,22.168,22.168,0,0,1-22.143,22.143m0-40A17.856,17.856,0,1,0,216.5,111.289a17.875,17.875,0,0,0-17.856-17.856" transform="translate(427.353 215.849)" fill="#58b68d"/>
        <path id="Path_74" data-name="Path 74" d="M189.676,109.427,179.618,99.368l3.031-3.031,7.027,7.031,9.853-9.853,3.031,3.028Z" transform="translate(434.907 226.425)" fill="#58b68d"/>
        <path id="Path_75" data-name="Path 75" d="M311.106,134.361H284.082c-.941-6.511-1.642-11.256-1.642-11.256s-.4,4.379-1,11.256H167.809c-.523-4.937-.972-7.965-1.2-8.081-.328-.168-1.533,3.113-3.066,8.081H132.939c7.982-31.784,19.258-69.839,26.241-72.531,11.834-4.55,60.057-19.416,60.057-19.416h27.531s48.914,13.955,53.465,29.122c3.247,10.822,7.489,34.651,10.873,62.825" transform="translate(321.884 102.697)" fill="#153126"/>
        <path id="Path_76" data-name="Path 76" d="M178.464,90.916l-.89-.168c.048-.243,4.509-24.695-1.827-38.555l.821-.376c6.456,14.123,1.943,38.852,1.9,39.1" transform="translate(425.535 125.464)" fill="#a93034"/>
        <path id="Path_77" data-name="Path 77" d="M182.4,80.782c-.027-.192-2.634-19.139-8.351-26.238l.7-.568c5.874,7.294,8.437,25.9,8.543,26.686Z" transform="translate(421.426 130.692)" fill="#a93034"/>
        <path id="Path_78" data-name="Path 78" d="M184.326,16.484s25.7,4.051,21.79,44.265S179.516,97.668,178,97.627s-22.772.732-24.431-48.367c0,0-.722-36.307,30.757-32.776" transform="translate(371.832 39.327)" fill="#eb9773"/>
        <path id="Path_79" data-name="Path 79" d="M190.288,39.652s-.7,16.542.9,20.121-21.212,15.084-35.123,2.265c0,0,3.36-17.975,2.426-24.346s31.8,1.96,31.8,1.96" transform="translate(377.869 85.454)" fill="#eb9773"/>
        <path id="Path_80" data-name="Path 80" d="M170.1,26.868s2.816-3.007,3.846.038-4.366,16.641-4.013,17.254c0,0-.513,1.18-1.187.53S170.1,26.868,170.1,26.868" transform="translate(408.246 61.846)" fill="#eb9773"/>
        <path id="Path_81" data-name="Path 81" d="M156.482,26.752s-2.758-3.059-3.846-.038,4.044,16.723,3.678,17.325c0,0,.493,1.191,1.18.554s-1.013-17.842-1.013-17.842" transform="translate(369.209 61.456)" fill="#eb9773"/>
        <path id="Path_82" data-name="Path 82" d="M208.2,57.8l-3.681,4.92s.106-10.784-.486-12.477.7-7.578.205-8.8-17.579,3.315-45.6.527c0,0,3.117,9.716,1.29,10.4S159,65.012,159,65.012L155.973,61.6s-3.418-20.4-3.086-23.805c.441-4.53-1.132-25.7,38.3-22.064a24.17,24.17,0,0,1,12.453,4.78c4.054,3.089,8.218,7.91,7.838,14.53-.5,8.752-3.274,22.762-3.274,22.762" transform="translate(370.129 37.08)" fill="#343333"/>
        <path id="Path_83" data-name="Path 83" d="M191.193,42.537s5.8,1.239-18.468,24.493c0,0-17.213-19.039-16.655-22.228s35.123-2.265,35.123-2.265" transform="translate(377.86 102.693)" fill="#eb9773"/>
        <path id="Path_84" data-name="Path 84" d="M164.645,122.027H132.693c4.964-18.985,10.952-38.986,14.66-51.826,6.391-22.078,15.105-22.693,15.105-22.693l4.749,66.438s-1.068,3.223-2.563,8.081" transform="translate(321.289 115.031)" fill="#3f433f"/>
        <path id="Path_85" data-name="Path 85" d="M160.929,66.942l6.5,12.8,20.5-32.259L179.4,42.449Z" transform="translate(389.655 102.781)" fill="#315e49"/>
        <path id="Path_86" data-name="Path 86" d="M234.326,134.279H206.312l-1.2-9.614s-.062,3.688-.178,9.614H164.973q.072-2.669.3-4.985c3.346-31.825,4.325-86.846,4.325-86.846s42.7,5.737,53.071,29.006c5.984,13.442,9.525,40.31,11.653,62.825" transform="translate(399.448 102.779)" fill="#3f433f"/>
        <path id="Path_87" data-name="Path 87" d="M176.812,65.339l-9.176,12.8-13.268-23.72,5.789-11.307Z" transform="translate(373.771 104.384)" fill="#315e49"/>
        <path id="Path_88" data-name="Path 88" d="M191.577,43.111s-4.937,21.109-7.349,51.706c-.684,8.7-3.808,22.427-7.985,37.857H146.973l-.831-8.081-4.749-66.435Z" transform="translate(342.354 104.384)" fill="#3f433f"/>
        <path id="Path_89" data-name="Path 89" d="M166.5,40.053l14.267,8.2L165.846,96.911Z" transform="translate(401.562 96.98)" fill="#3f433f"/>
        <path id="Path_90" data-name="Path 90" d="M167.512,40.635l-1.379,8.471-9.409,44.473L151.9,46.725Z" transform="translate(367.796 98.389)" fill="#3f433f"/>
        <path id="Path_91" data-name="Path 91" d="M157.324,38.72s5.457,5.977,13.627,5.324a26.273,26.273,0,0,0,13.873-5.621,16.125,16.125,0,0,1-14.219,9.039,12.686,12.686,0,0,1-13.281-8.741" transform="translate(380.927 93.031)" fill="#97644e"/>
        <g id="Group_32" data-name="Group 32" transform="translate(273.087 173.4)" opacity="0.95">
          <g id="Group_31" data-name="Group 31">
            <g id="Group_30" data-name="Group 30" clip-path="url(#clip-path-11)">
              <g id="Group_25" data-name="Group 25" transform="translate(85.083 9.947)">
                <g id="Group_24" data-name="Group 24" clip-path="url(#clip-path-12)">
                  <rect id="Rectangle_25" data-name="Rectangle 25" width="29.623" height="14.399" transform="translate(0 0)" fill="url(#linear-gradient-4)"/>
                </g>
              </g>
              <g id="Group_27" data-name="Group 27" transform="translate(74.471 9.947)">
                <g id="Group_26" data-name="Group 26" clip-path="url(#clip-path-13)">
                  <rect id="Rectangle_26" data-name="Rectangle 26" width="12.343" height="14.399" transform="translate(0 0)" fill="url(#linear-gradient-5)"/>
                </g>
              </g>
              <g id="Group_29" data-name="Group 29" transform="translate(0.001 -0.003)">
                <g id="Group_28" data-name="Group 28" clip-path="url(#clip-path-14)">
                  <rect id="Rectangle_27" data-name="Rectangle 27" width="94.894" height="7.2" transform="translate(0 0)" fill="url(#linear-gradient-6)"/>
                </g>
              </g>
            </g>
          </g>
        </g>
      </g>
    </g>
    <g id="Group_36" data-name="Group 36" transform="translate(139.442 316.179)">
      <g id="Group_35" data-name="Group 35" clip-path="url(#clip-path-15)">
        <rect id="Rectangle_30" data-name="Rectangle 30" width="29.108" height="14.154" fill="url(#linear-gradient-7)"/>
      </g>
    </g>
    <g id="Group_38" data-name="Group 38" transform="translate(129.01 316.179)">
      <g id="Group_37" data-name="Group 37" clip-path="url(#clip-path-16)">
        <rect id="Rectangle_31" data-name="Rectangle 31" width="12.132" height="14.154" transform="translate(0)" fill="url(#linear-gradient-8)"/>
      </g>
    </g>
  </g>
</svg>
