<svg xmlns="http://www.w3.org/2000/svg" xmlns:xlink="http://www.w3.org/1999/xlink" width="194.026" height="45.79" viewBox="0 0 194.026 45.79">
  <defs>
    <clipPath id="clip-path">
      <rect id="Rectangle_39" data-name="Rectangle 39" width="194.026" height="45.79" fill="none"/>
    </clipPath>
  </defs>
  <g id="Group_44" data-name="Group 44" transform="translate(0 0)">
    <g id="Group_43" data-name="Group 43" transform="translate(0 0)" clip-path="url(#clip-path)">
      <path id="Path_97" data-name="Path 97" d="M33.3,25.174v-.565a1.929,1.929,0,0,0-1.926-1.927q-6.5,0-12.975-.026H5.4a5.212,5.212,0,0,1-3.8-1.579A5.178,5.178,0,0,1,0,17.261V5.493a5.188,5.188,0,0,1,1.593-3.8A5.189,5.189,0,0,1,5.4.1H37.228a5.178,5.178,0,0,1,3.815,1.593,5.212,5.212,0,0,1,1.58,3.8v7.271H33.3V9.579A1.9,1.9,0,0,0,32.732,8.2a1.836,1.836,0,0,0-1.361-.579H11.253A1.974,1.974,0,0,0,9.3,9.579v3.7a1.839,1.839,0,0,0,.577,1.362,1.9,1.9,0,0,0,1.375.565H37.228a5.4,5.4,0,0,1,5.4,5.4v4.573Zm-2.98,12.872H5.4a5.209,5.209,0,0,1-3.8-1.58A5.175,5.175,0,0,1,0,32.65V25.3H9.3v3.52a1.868,1.868,0,0,0,.577,1.387,1.9,1.9,0,0,0,1.375.565H30.316Z" transform="translate(0 0.004)" fill="#fff"/>
      <path id="Path_98" data-name="Path 98" d="M55.168,37.969h-9.3V.1H83.147a5.006,5.006,0,0,1,3.674,1.516,4.974,4.974,0,0,1,1.516,3.648v12.2a5.175,5.175,0,0,1-5.19,5.189H67.577v-7.4h9.584a2.018,2.018,0,0,0,2.03-2.03V9.682A1.93,1.93,0,0,0,78.6,8.268a1.962,1.962,0,0,0-1.439-.591H55.168Z" transform="translate(1.945 0.004)" fill="#fff"/>
      <path id="Path_99" data-name="Path 99" d="M121.157,37.87H111.19L99.7,8.53V37.87H90.4V0H105.9l10.252,26.72,4.444-10.945h9.635Zm21.3,0h-9.3V0h9.3Z" transform="translate(3.834 0)" fill="#fff"/>
      <path id="Path_100" data-name="Path 100" d="M154.569,12.971v.565a1.929,1.929,0,0,0,1.926,1.927q6.5,0,12.975.026h13a5.415,5.415,0,0,1,5.4,5.394V32.651a5.439,5.439,0,0,1-5.4,5.394H150.638a5.417,5.417,0,0,1-5.4-5.394V25.381h9.326v3.186a1.9,1.9,0,0,0,.565,1.374,1.836,1.836,0,0,0,1.361.579h20.117a1.974,1.974,0,0,0,1.952-1.952v-3.7a1.839,1.839,0,0,0-.577-1.362,1.9,1.9,0,0,0-1.375-.565H150.638a5.4,5.4,0,0,1-5.4-5.4V12.971ZM157.55.1h24.921a5.207,5.207,0,0,1,3.8,1.58,5.175,5.175,0,0,1,1.593,3.815v7.348h-9.3V9.322a1.868,1.868,0,0,0-.577-1.387,1.9,1.9,0,0,0-1.375-.565H157.55Z" transform="translate(6.159 0.004)" fill="#fff"/>
      <path id="Path_101" data-name="Path 101" d="M4.937,44.132H.715a.69.69,0,0,1-.5-.21A.683.683,0,0,1,0,43.417v-.975H1.233v.467a.248.248,0,0,0,.077.183.251.251,0,0,0,.182.075H4.16a.246.246,0,0,0,.18-.075.25.25,0,0,0,.075-.183V42.35a.256.256,0,0,0-.255-.256l-3.445,0a.69.69,0,0,1-.5-.21A.683.683,0,0,1,0,41.376v-1.56a.686.686,0,0,1,.212-.5.688.688,0,0,1,.5-.212H4.937a.719.719,0,0,1,.715.716v.964H4.416v-.422a.251.251,0,0,0-.075-.182.244.244,0,0,0-.18-.077H1.493a.263.263,0,0,0-.26.26v.49a.245.245,0,0,0,.077.181.254.254,0,0,0,.182.074H4.937a.715.715,0,0,1,.715.716v1.6a.715.715,0,0,1-.715.715" transform="translate(0 1.658)" fill="#fff"/>
      <path id="Path_102" data-name="Path 102" d="M7.316,44.121H6.083V39.1h4.944a.687.687,0,0,1,.688.685V41.4a.687.687,0,0,1-.688.689H8.962V41.11h1.271a.269.269,0,0,0,.269-.27v-.47a.267.267,0,0,0-.269-.266H7.316Z" transform="translate(0.258 1.658)" fill="#fff"/>
      <path id="Path_103" data-name="Path 103" d="M11.989,42.1V39.09h4.749v1H13.222V41.1h2.287v1Zm4.749,2.007H13.7v-1h3.04Z" transform="translate(0.508 1.658)" fill="#fff"/>
      <path id="Path_104" data-name="Path 104" d="M18.305,42.288H17.072V39.825a.739.739,0,0,1,.736-.736H22a.7.7,0,0,1,.518.217.711.711,0,0,1,.215.519v.954H21.5V40.36a.263.263,0,0,0-.079-.189.253.253,0,0,0-.187-.08H18.574a.257.257,0,0,0-.191.08.262.262,0,0,0-.078.189ZM22,44.111H18.908v-1h2.325a.255.255,0,0,0,.187-.078.26.26,0,0,0,.079-.191v-.416h1.233v.954a.733.733,0,0,1-.733.733" transform="translate(0.724 1.658)" fill="#fff"/>
      <path id="Path_105" data-name="Path 105" d="M24.3,40.013H23.066v-.924H24.3Zm0,4.1H23.066V40.534H24.3Z" transform="translate(0.978 1.658)" fill="#fff"/>
      <path id="Path_106" data-name="Path 106" d="M30.939,44.119h-1.26l-.45-1.026H27.951v-1h.841l-.968-2.208-1.849,4.238H24.713l2.2-5.033h1.823Z" transform="translate(1.048 1.658)" fill="#fff"/>
      <path id="Path_107" data-name="Path 107" d="M32.19,42.466H30.957V39.09H32.19Zm3.789,1.645H32.2v-1h3.776Z" transform="translate(1.313 1.658)" fill="#fff"/>
      <path id="Path_108" data-name="Path 108" d="M40.773,44.121H39.54V39.1h4.947a.69.69,0,0,1,.685.688v1.619a.664.664,0,0,1-.2.486.655.655,0,0,1-.484.2H40.773Zm2.917-3.008a.267.267,0,0,0,.269-.269v-.47a.256.256,0,0,0-.078-.188.26.26,0,0,0-.191-.078H40.773v1Z" transform="translate(1.677 1.658)" fill="#fff"/>
      <path id="Path_109" data-name="Path 109" d="M45.446,42.1V39.09H50.2v1H46.679V41.1h2.287v1Zm4.75,2.007h-3.04v-1H50.2Z" transform="translate(1.927 1.658)" fill="#fff"/>
      <path id="Path_110" data-name="Path 110" d="M56.262,44.132h-1.23l-.76-2.041H51.863v2.031H50.63V41.107l4.15,0a.267.267,0,0,0,.269-.269v-.47a.256.256,0,0,0-.078-.188.26.26,0,0,0-.191-.078H52.555V39.1h3.019a.687.687,0,0,1,.688.685V41.4a.687.687,0,0,1-.688.688h-.069Z" transform="translate(2.147 1.658)" fill="#fff"/>
      <path id="Path_111" data-name="Path 111" d="M60.923,42.425V42.35a.256.256,0,0,0-.255-.256q-.862,0-1.721,0H57.223a.719.719,0,0,1-.716-.715v-1.56a.723.723,0,0,1,.716-.716h4.221a.719.719,0,0,1,.716.716v.964H60.923v-.422a.251.251,0,0,0-.075-.182.243.243,0,0,0-.18-.077H58a.263.263,0,0,0-.26.26v.49a.245.245,0,0,0,.077.181A.254.254,0,0,0,58,41.1h3.444a.715.715,0,0,1,.716.716v.607Zm-.4,1.706h-3.3a.719.719,0,0,1-.716-.715v-.975H57.74v.467a.248.248,0,0,0,.077.183.251.251,0,0,0,.182.075h2.528Z" transform="translate(2.396 1.658)" fill="#fff"/>
      <path id="Path_112" data-name="Path 112" d="M67.48,44.128H63.293a.74.74,0,0,1-.736-.736V41H63.79v1.858a.269.269,0,0,0,.269.266h2.655a.26.26,0,0,0,.191-.079.255.255,0,0,0,.078-.187V40.377a.26.26,0,0,0-.078-.191.263.263,0,0,0-.191-.078H64.663v-1H67.48a.711.711,0,0,1,.519.215.7.7,0,0,1,.217.518v3.554a.74.74,0,0,1-.736.736" transform="translate(2.653 1.659)" fill="#fff"/>
      <path id="Path_113" data-name="Path 113" d="M69.949,44.121H68.715V39.1h1.227v1.5h.007Zm4.139,0H72.313L70.173,40.6H71.4l1.452,2.388V39.1h1.233Z" transform="translate(2.914 1.658)" fill="#fff"/>
      <path id="Path_114" data-name="Path 114" d="M80.386,44.119h-1.26l-.45-1.026H77.4v-1h.841l-.968-2.208-1.849,4.238H74.16l2.2-5.033h1.823Z" transform="translate(3.145 1.658)" fill="#fff"/>
      <path id="Path_115" data-name="Path 115" d="M81.637,42.466H80.4V39.09h1.233Zm3.789,1.645H81.651v-1h3.776Z" transform="translate(3.41 1.658)" fill="#fff"/>
      <path id="Path_116" data-name="Path 116" d="M95.89,44.112H94.657V40.234l-1.592,3.878H91.743L90.22,40.225v3.887H88.987V39.089h2.055L92.4,42.634l1.437-3.544H95.89Z" transform="translate(3.774 1.658)" fill="#fff"/>
      <path id="Path_117" data-name="Path 117" d="M102.148,44.119h-1.261l-.449-1.026H99.159v-1H100l-.968-2.208-1.849,4.238H95.923l2.2-5.033h1.822Z" transform="translate(4.068 1.658)" fill="#fff"/>
      <path id="Path_118" data-name="Path 118" d="M103.421,44.121h-1.233V39.1h1.227v1.5h.006Zm4.14,0h-1.775l-2.14-3.523h1.23l1.451,2.388V39.1h1.234Z" transform="translate(4.334 1.658)" fill="#fff"/>
      <path id="Path_119" data-name="Path 119" d="M113.859,44.119H112.6l-.449-1.026h-1.278v-1h.842l-.968-2.208L108.9,44.119h-1.261l2.2-5.033h1.822Z" transform="translate(4.565 1.658)" fill="#fff"/>
      <path id="Path_120" data-name="Path 120" d="M118.65,44.112h-4.19a.733.733,0,0,1-.733-.733v-2.6h1.23v2.062a.253.253,0,0,0,.08.19.259.259,0,0,0,.189.079h2.658a.272.272,0,0,0,.269-.269v-.552h-1.595v-1h2.825v2.1a.733.733,0,0,1-.733.733m.733-3.333h-1.23v-.419a.258.258,0,0,0-.08-.189.254.254,0,0,0-.189-.08h-2.641v-1h3.408a.7.7,0,0,1,.518.216.715.715,0,0,1,.215.52Z" transform="translate(4.823 1.658)" fill="#fff"/>
      <path id="Path_121" data-name="Path 121" d="M119.842,42.1V39.09h4.75v1h-3.516V41.1h2.286v1Zm4.75,2.007h-3.039v-1h3.039Z" transform="translate(5.082 1.658)" fill="#fff"/>
      <path id="Path_122" data-name="Path 122" d="M129.1,44.108h-1.323l-1.523-3.89v3.89h-1.233V39.086h2.055l1.359,3.544.59-1.452h1.277Zm2.824,0H130.7V39.086h1.233Z" transform="translate(5.302 1.658)" fill="#fff"/>
      <path id="Path_123" data-name="Path 123" d="M132.315,42.1V39.09h4.75v1h-3.517V41.1h2.287v1Zm4.75,2.007h-3.039v-1h3.039Z" transform="translate(5.611 1.658)" fill="#fff"/>
      <path id="Path_124" data-name="Path 124" d="M138.732,44.121H137.5V39.1h1.227v1.5h.006Zm4.14,0H141.1l-2.14-3.523h1.23l1.451,2.388V39.1h1.234Z" transform="translate(5.831 1.658)" fill="#fff"/>
      <path id="Path_125" data-name="Path 125" d="M144.26,40.1h-1.237v-1h1.237Zm1.89,4.021h-1.233V40.107h1.233Zm1.9-4.021h-1.871v-1h1.871Z" transform="translate(6.065 1.658)" fill="#fff"/>
      <path id="Path_126" data-name="Path 126" d="M156.543,44.132h-4.222a.719.719,0,0,1-.715-.715v-.975h1.233v.467a.248.248,0,0,0,.077.183.25.25,0,0,0,.181.075h2.669a.246.246,0,0,0,.18-.075.25.25,0,0,0,.075-.183V42.35a.256.256,0,0,0-.255-.256l-3.445,0a.719.719,0,0,1-.715-.715v-1.56a.723.723,0,0,1,.715-.716h4.222a.719.719,0,0,1,.715.716v.964h-1.236v-.422a.251.251,0,0,0-.075-.182.244.244,0,0,0-.18-.077H153.1a.264.264,0,0,0-.259.26v.49a.245.245,0,0,0,.077.181.254.254,0,0,0,.181.074h3.445a.715.715,0,0,1,.715.716v1.6a.715.715,0,0,1-.715.715" transform="translate(6.429 1.658)" fill="#fff"/>
      <path id="Path_127" data-name="Path 127" d="M160.921,44.122h-1.233V42.4H158.21a.737.737,0,0,1-.733-.736V39.1h1.233v2.031a.259.259,0,0,0,.078.188.256.256,0,0,0,.188.078h1.945ZM162.4,42.4h-.5V39.1h1.233v2.565a.74.74,0,0,1-.736.736" transform="translate(6.678 1.658)" fill="#fff"/>
      <path id="Path_128" data-name="Path 128" d="M167.835,42.425V42.35a.256.256,0,0,0-.255-.256q-.862,0-1.72,0h-1.724a.719.719,0,0,1-.716-.715v-1.56a.723.723,0,0,1,.716-.716h4.221a.719.719,0,0,1,.716.716v.964h-1.237v-.422a.251.251,0,0,0-.075-.182.243.243,0,0,0-.18-.077h-2.668a.263.263,0,0,0-.26.26v.49a.245.245,0,0,0,.077.181.254.254,0,0,0,.182.074h3.444a.715.715,0,0,1,.716.716v.607Zm-.4,1.706h-3.3a.719.719,0,0,1-.716-.715v-.975h1.233v.467a.248.248,0,0,0,.077.183.251.251,0,0,0,.182.075h2.528Z" transform="translate(6.93 1.658)" fill="#fff"/>
      <path id="Path_129" data-name="Path 129" d="M170.372,40.1h-1.237v-1h1.237Zm1.891,4.021H171.03V40.107h1.233Zm1.9-4.021h-1.871v-1h1.871Z" transform="translate(7.173 1.658)" fill="#fff"/>
      <path id="Path_130" data-name="Path 130" d="M174.326,42.1V39.09h4.75v1h-3.517V41.1h2.287v1Zm4.75,2.007h-3.039v-1h3.039Z" transform="translate(7.393 1.658)" fill="#fff"/>
      <path id="Path_131" data-name="Path 131" d="M183.589,44.108h-1.323l-1.523-3.89v3.89H179.51V39.086h2.055l1.359,3.544.59-1.452h1.277Zm2.824,0H185.18V39.086h1.233Z" transform="translate(7.613 1.658)" fill="#fff"/>
      <path id="Path_132" data-name="Path 132" d="M40.557,32.469a4.2,4.2,0,1,1-4.2-4.2,4.2,4.2,0,0,1,4.2,4.2" transform="translate(1.364 1.199)" fill="#fff"/>
      <path id="Path_133" data-name="Path 133" d="M153.991,4.3a4.2,4.2,0,1,1-4.2-4.2,4.2,4.2,0,0,1,4.2,4.2" transform="translate(6.174 0.004)" fill="#fff"/>
    </g>
  </g>
</svg>
