<svg xmlns="http://www.w3.org/2000/svg" width="97" height="97" viewBox="0 0 97 97">
  <g id="Group_219" data-name="Group 219" transform="translate(-4082 161)">
    <rect id="Rectangle_143" data-name="Rectangle 143" width="97" height="97" rx="48.5" transform="translate(4082 -161)" fill="#054232"/>
    <g id="Group_217" data-name="Group 217" transform="translate(4101.307 -141.879)">
      <g id="Group_218" data-name="Group 218" transform="translate(0 0)">
        <path id="Path_97" data-name="Path 97" d="M21.533,18.5v-.415a1.462,1.462,0,0,0-.365-1,1.135,1.135,0,0,0-.88-.415q-4.2,0-8.391-.019H3.489A3.183,3.183,0,0,1,1.03,15.491,4.068,4.068,0,0,1,0,12.692V4.057A4.076,4.076,0,0,1,1.03,1.268,3.172,3.172,0,0,1,3.489.1H24.075a3.165,3.165,0,0,1,2.467,1.169,4.1,4.1,0,0,1,1.022,2.789V9.392H21.533V7.055a1.494,1.494,0,0,0-.365-1.008,1.124,1.124,0,0,0-.88-.424H7.277a1.149,1.149,0,0,0-.889.424,1.475,1.475,0,0,0-.373,1.008V9.769a1.443,1.443,0,0,0,.373,1,1.161,1.161,0,0,0,.889.415h16.8a3.175,3.175,0,0,1,2.467,1.16,4.088,4.088,0,0,1,1.022,2.8V18.5Zm-1.927,9.444H3.489a3.182,3.182,0,0,1-2.459-1.16A4.066,4.066,0,0,1,0,23.983V18.592H6.015v2.583a1.468,1.468,0,0,0,.373,1.018,1.161,1.161,0,0,0,.889.415H19.606Z" transform="translate(0 -0.099)" fill="#fff"/>
        <path id="Path_98" data-name="Path 98" d="M51.883,27.892H45.868V.1H69.976a3.056,3.056,0,0,1,2.376,1.112,3.912,3.912,0,0,1,.98,2.678v8.956a3.937,3.937,0,0,1-.98,2.7,3.054,3.054,0,0,1-2.376,1.112H59.908v-5.43h6.2a1.2,1.2,0,0,0,.93-.434,1.54,1.54,0,0,0,.382-1.056v-2.6a1.518,1.518,0,0,0-.382-1.037,1.2,1.2,0,0,0-.93-.434H51.883Z" transform="translate(-14.947 -0.099)" fill="#fff"/>
        <path id="Path_99" data-name="Path 99" d="M108.135,26.838h-5.747L95.766,6.045V26.838H90.4V0h8.932l5.911,18.936,2.562-7.757h5.555Zm12.281,0h-5.362V0h5.362Z" transform="translate(-89.552 31.816)" fill="#fff"/>
        <path id="Path_100" data-name="Path 100" d="M150.62,9.217v.4a1.482,1.482,0,0,0,.326.965.983.983,0,0,0,.785.4q3.749,0,7.481.018h7.5A2.756,2.756,0,0,1,168.9,12.12a4.124,4.124,0,0,1,.918,2.7V23.16a4.132,4.132,0,0,1-.918,2.693,2.747,2.747,0,0,1-2.193,1.128H148.354a2.741,2.741,0,0,1-2.2-1.128,4.152,4.152,0,0,1-.911-2.693V18.009h5.377v2.257a1.516,1.516,0,0,0,.326.973.975.975,0,0,0,.785.41h11.6a1,1,0,0,0,.793-.41,1.5,1.5,0,0,0,.333-.973V17.645a1.462,1.462,0,0,0-.333-.965,1,1,0,0,0-.793-.4H148.354a2.748,2.748,0,0,1-2.2-1.12,4.142,4.142,0,0,1-.911-2.7V9.217ZM152.339.1h14.369a2.754,2.754,0,0,1,2.193,1.12,4.121,4.121,0,0,1,.918,2.7V9.127h-5.362V6.633a1.488,1.488,0,0,0-.333-.983,1,1,0,0,0-.793-.4H152.339Z" transform="translate(-111.432 31.776)" fill="#fff"/>
        <path id="Path_132" data-name="Path 132" d="M37.588,30.984a2.717,2.717,0,1,1-2.717-2.717,2.718,2.718,0,0,1,2.717,2.717" transform="translate(-10.478 -5.975)" fill="#fff"/>
        <path id="Path_133" data-name="Path 133" d="M150.432,2.522A2.423,2.423,0,1,1,148.01.1a2.423,2.423,0,0,1,2.423,2.423" transform="translate(-111.569 31.776)" fill="#fff"/>
      </g>
    </g>
  </g>
</svg>